<?xml version="1.0" encoding="utf-8"?>
<!-- Generated by IcoMoon.io -->
<svg version="1.1" xmlns="http://www.w3.org/2000/svg" xmlns:xlink="http://www.w3.org/1999/xlink" width="752" height="32" viewBox="0 0 752 32">
    <svg id="icon-fluent_globe-20-regular" width="32" height="32" viewBox="0 0 32 32" x="0" y="0">
        <path fill="#fff" d="M16 28.8c3.395 0 6.651-1.349 9.051-3.749s3.749-5.656 3.749-9.051c0-3.395-1.349-6.651-3.749-9.051s-5.656-3.749-9.051-3.749c-3.395 0-6.651 1.349-9.051 3.749s-3.749 5.656-3.749 9.051c0 3.395 1.349 6.651 3.749 9.051s5.656 3.749 9.051 3.749zM16 4.8c1.051 0 2.251 0.944 3.235 3.053 0.347 0.746 0.65 1.603 0.894 2.547h-8.259c0.245-0.944 0.547-1.802 0.896-2.547 0.981-2.109 2.181-3.053 3.234-3.053zM11.315 7.176c-0.472 1.035-0.839 2.115-1.093 3.224h-3.925c1.351-2.335 3.496-4.105 6.045-4.989-0.386 0.528-0.73 1.126-1.027 1.765zM9.907 12c-0.207 1.323-0.31 2.661-0.307 4 0 1.392 0.107 2.739 0.309 4h-4.373c-0.488-1.277-0.737-2.633-0.736-4 0-1.408 0.261-2.758 0.736-4h4.371zM10.222 21.6c0.282 1.189 0.651 2.275 1.093 3.224 0.298 0.638 0.642 1.237 1.027 1.765-2.548-0.883-4.694-2.654-6.045-4.989h3.925zM11.87 21.6h8.259c-0.22 0.875-0.52 1.727-0.896 2.547-0.981 2.109-2.181 3.053-3.234 3.053-1.051 0-2.251-0.944-3.235-3.053-0.375-0.82-0.673-1.673-0.893-2.547h-0.002zM20.47 20h-8.941c-0.222-1.322-0.333-2.66-0.33-4 0-1.413 0.117-2.76 0.33-4h8.941c0.213 1.24 0.33 2.587 0.33 4s-0.117 2.76-0.33 4zM21.778 21.6h3.925c-1.351 2.335-3.496 4.105-6.045 4.989 0.386-0.528 0.73-1.126 1.027-1.765 0.442-0.949 0.811-2.035 1.093-3.224zM26.466 20h-4.374c0.202-1.261 0.309-2.608 0.309-4s-0.107-2.739-0.309-4h4.373c0.475 1.242 0.736 2.592 0.736 4s-0.261 2.758-0.736 4h0.002zM19.658 5.411c2.549 0.883 4.694 2.654 6.045 4.989h-3.926c-0.254-1.109-0.62-2.189-1.093-3.224-0.285-0.62-0.629-1.211-1.027-1.765h0.002z"></path>
    </svg>
    <svg id="icon-flat-color-icons_calendar" width="31" height="32" viewBox="0 0 31 32" x="48" y="0">
        <path fill="#cfd8dc" d="M3.185 25.333v-16h24.207v16c0 1.467-1.147 2.667-2.548 2.667h-19.111c-1.401 0-2.548-1.2-2.548-2.667z"></path>
        <path fill="#f44336" d="M27.393 6.667v4h-24.207v-4c0-1.467 1.147-2.667 2.548-2.667h19.111c1.401 0 2.548 1.2 2.548 2.667z"></path>
        <path fill="#b71c1c" d="M21.022 8.667c1.055 0 1.911-0.895 1.911-2s-0.856-2-1.911-2c-1.055 0-1.911 0.895-1.911 2s0.856 2 1.911 2z"></path>
        <path fill="#b71c1c" d="M9.556 8.667c1.056 0 1.911-0.895 1.911-2s-0.856-2-1.911-2c-1.056 0-1.911 0.895-1.911 2s0.856 2 1.911 2z"></path>
        <path fill="#b0bec5" d="M21.022 2c-0.701 0-1.274 0.6-1.274 1.333v3.333c0 0.733 0.573 1.333 1.274 1.333s1.274-0.6 1.274-1.333v-3.333c0-0.733-0.573-1.333-1.274-1.333z"></path>
        <path fill="#b0bec5" d="M9.556 2c-0.701 0-1.274 0.6-1.274 1.333v3.333c0 0.733 0.573 1.333 1.274 1.333s1.274-0.6 1.274-1.333v-3.333c0-0.733-0.573-1.333-1.274-1.333z"></path>
        <path fill="#90a4ae" d="M8.281 13.333h2.548v2.667h-2.548v-2.667z"></path>
        <path fill="#90a4ae" d="M12.104 13.333h2.548v2.667h-2.548v-2.667z"></path>
        <path fill="#90a4ae" d="M15.926 13.333h2.548v2.667h-2.548v-2.667z"></path>
        <path fill="#90a4ae" d="M19.748 13.333h2.548v2.667h-2.548v-2.667z"></path>
        <path fill="#90a4ae" d="M8.281 17.333h2.548v2.667h-2.548v-2.667z"></path>
        <path fill="#90a4ae" d="M12.104 17.333h2.548v2.667h-2.548v-2.667z"></path>
        <path fill="#90a4ae" d="M15.926 17.333h2.548v2.667h-2.548v-2.667z"></path>
        <path fill="#90a4ae" d="M19.748 17.333h2.548v2.667h-2.548v-2.667z"></path>
        <path fill="#90a4ae" d="M8.281 21.333h2.548v2.667h-2.548v-2.667z"></path>
        <path fill="#90a4ae" d="M12.104 21.333h2.548v2.667h-2.548v-2.667z"></path>
        <path fill="#90a4ae" d="M15.926 21.333h2.548v2.667h-2.548v-2.667z"></path>
        <path fill="#90a4ae" d="M19.748 21.333h2.548v2.667h-2.548v-2.667z"></path>
    </svg>
    <svg id="icon-eva_person-fill" width="29" height="32" viewBox="0 0 29 32" x="96" y="0">
        <path d="M14.2 19.2c1.243 0 2.458-0.313 3.492-0.899s1.839-1.419 2.315-2.394c0.476-0.975 0.6-2.047 0.358-3.081s-0.841-1.985-1.72-2.731c-0.879-0.746-1.999-1.254-3.218-1.46s-2.483-0.1-3.632 0.303-2.13 1.087-2.821 1.964c-0.691 0.877-1.059 1.908-1.059 2.963 0 1.415 0.662 2.771 1.841 3.771s2.778 1.562 4.445 1.562zM23.629 32.533c0.417 0 0.816-0.14 1.111-0.391s0.46-0.589 0.46-0.943c0-2.475-1.159-4.849-3.222-6.6s-4.861-2.734-7.778-2.734-5.715 0.983-7.778 2.734c-2.063 1.75-3.222 4.124-3.222 6.6 0 0.354 0.166 0.693 0.46 0.943s0.694 0.391 1.111 0.391h18.857z"></path>
    </svg>
    <svg id="icon-Arrow-2" width="17" height="32" viewBox="0 0 17 32" x="144" y="0">
        <path fill="#fff" d="M8.398 0l-8.398 14.545h16.796l-8.398-14.545zM9.852 31.481v-18.39h-2.909v18.39h2.909z"></path>
    </svg>
</svg>